<svg width="22" height="22" viewBox="0 0 22 22" fill="none" xmlns="http://www.w3.org/2000/svg">
<path d="M11 5C11.2387 5 11.4676 5.09482 11.6364 5.2636C11.8052 5.43239 11.9 5.66131 11.9 5.9V10.1H16.1C16.3387 10.1 16.5676 10.1948 16.7364 10.3636C16.9052 10.5324 17 10.7613 17 11C17 11.2387 16.9052 11.4676 16.7364 11.6364C16.5676 11.8052 16.3387 11.9 16.1 11.9H11.9V16.1C11.9 16.3387 11.8052 16.5676 11.6364 16.7364C11.4676 16.9052 11.2387 17 11 17C10.7613 17 10.5324 16.9052 10.3636 16.7364C10.1948 16.5676 10.1 16.3387 10.1 16.1V11.9H5.9C5.66131 11.9 5.43239 11.8052 5.2636 11.6364C5.09482 11.4676 5 11.2387 5 11C5 10.7613 5.09482 10.5324 5.2636 10.3636C5.43239 10.1948 5.66131 10.1 5.9 10.1H10.1V5.9C10.1 5.66131 10.1948 5.43239 10.3636 5.2636C10.5324 5.09482 10.7613 5 11 5Z" fill="black"/>
<path d="M0 3.97222C0 2.91872 0.418501 1.90837 1.16344 1.16344C1.90837 0.418501 2.91872 0 3.97222 0H18.0278C19.0813 0 20.0916 0.418501 20.8366 1.16344C21.5815 1.90837 22 2.91872 22 3.97222V18.0278C22 19.0813 21.5815 20.0916 20.8366 20.8366C20.0916 21.5815 19.0813 22 18.0278 22H3.97222C2.91872 22 1.90837 21.5815 1.16344 20.8366C0.418501 20.0916 0 19.0813 0 18.0278V3.97222ZM3.97222 1.83333C3.40495 1.83333 2.86092 2.05868 2.4598 2.4598C2.05868 2.86092 1.83333 3.40495 1.83333 3.97222V18.0278C1.83333 19.2084 2.79156 20.1667 3.97222 20.1667H18.0278C18.595 20.1667 19.1391 19.9413 19.5402 19.5402C19.9413 19.1391 20.1667 18.595 20.1667 18.0278V3.97222C20.1667 3.40495 19.9413 2.86092 19.5402 2.4598C19.1391 2.05868 18.595 1.83333 18.0278 1.83333H3.97222Z" fill="black"/>
</svg>
