<svg width="123" height="35" viewBox="0 0 123 35" fill="none" xmlns="http://www.w3.org/2000/svg">
<g clip-path="url(#clip0_292_5)">
<path d="M6.50302 0.216232C3.9986 1.26527 1.24583 4.22517 0.376342 7.94332C-0.724959 12.6527 3.85716 14.6449 4.23329 13.9926C4.67559 13.2252 3.41223 12.9658 3.15213 10.5221C2.81603 7.36582 4.2834 3.83921 6.13025 2.29178C6.47305 2.00411 6.45699 2.40445 6.45699 3.14449C6.45699 4.46801 6.38388 16.3498 6.38388 18.8295C6.38388 22.1847 6.24531 23.2443 5.99624 24.2914C5.74429 25.3522 5.33867 26.0692 5.64576 26.3454C5.98905 26.6542 7.45473 25.9194 8.30312 24.7354C9.32052 23.3153 9.67675 21.6094 9.74076 19.7575C9.81795 17.5247 9.8146 13.9815 9.81795 11.9607C9.82083 10.1073 9.84912 4.68017 9.78535 1.4175C9.76977 0.616815 7.55038 -0.222706 6.50302 0.216232Z" fill="black"/>
<path d="M95.4277 15.919C95.3469 17.6635 94.9607 19.0268 94.4815 19.9886C93.5537 21.8505 91.6287 22.4285 90.8112 19.7522C90.3658 18.2932 90.345 15.8567 90.665 13.8207C90.9911 11.7468 91.9015 10.1804 93.4087 10.3216C94.8955 10.4614 95.5914 12.377 95.4277 15.9192V15.919ZM70.3643 26.7417C70.3442 29.64 69.888 32.1811 68.9099 32.9194C67.5224 33.9661 65.6575 33.1807 66.0437 31.0659C66.3853 29.1943 68.0013 27.283 70.3684 24.9476C70.3684 24.9476 70.3732 25.4802 70.3643 26.7417ZM69.9855 15.902C69.9007 17.4909 69.4888 19.0867 69.0393 19.9886C68.1116 21.8505 66.1727 22.4326 65.3691 19.7522C64.8197 17.9207 64.9513 15.5508 65.2229 14.0573C65.5758 12.1196 66.4311 10.3219 67.9666 10.3219C69.4596 10.3219 70.196 11.9599 69.9855 15.902ZM55.4665 15.878C55.3754 17.5604 55.0472 18.9669 54.5206 19.9886C53.5674 21.8378 51.6817 22.4242 50.8504 19.7522C50.2508 17.8255 50.4548 15.1986 50.7041 13.7794C51.0743 11.6735 52.001 10.1804 53.4478 10.3219C54.9339 10.4671 55.6562 12.377 55.4665 15.878ZM122.003 17.8433C121.64 17.8433 121.474 18.2177 121.337 18.8477C120.861 21.0398 120.361 21.5343 119.716 21.5343C118.996 21.5343 118.349 20.4493 118.182 18.2769C118.052 16.5687 118.073 13.4239 118.24 10.2957C118.274 9.65304 118.097 9.01705 116.373 8.39088C115.631 8.12143 114.553 7.72468 114.016 9.02064C112.499 12.6822 111.905 15.5891 111.766 16.7695C111.759 16.8307 111.683 16.8434 111.671 16.7005C111.581 15.7548 111.383 14.036 111.358 10.4252C111.353 9.72064 111.204 9.12109 110.426 8.63013C109.921 8.31129 108.389 7.74794 107.838 8.41845C107.36 8.96646 106.806 10.4417 106.231 12.1908C105.763 13.6124 105.438 14.5737 105.438 14.5737C105.438 14.5737 105.444 10.7385 105.45 9.28362C105.452 8.73489 105.076 8.55198 104.962 8.5189C104.451 8.37075 103.445 8.12311 103.017 8.12311C102.49 8.12311 102.361 8.41749 102.361 8.84708C102.361 8.90342 102.278 13.8964 102.278 17.3878C102.278 17.5395 102.278 17.705 102.279 17.8809C101.987 19.4856 101.041 21.6638 100.013 21.6638C98.983 21.6638 98.4973 20.7533 98.4973 16.591C98.4973 14.1628 98.5702 13.1068 98.6059 11.3505C98.6268 10.3389 98.6671 9.56218 98.6647 9.38599C98.657 8.8454 97.7226 8.57283 97.2875 8.47215C96.8504 8.37075 96.4707 8.33119 96.1742 8.34821C95.7544 8.37218 95.4574 8.64715 95.4574 9.02592C95.4574 9.22921 95.4598 9.61516 95.4598 9.61516C94.9192 8.76557 94.0497 8.17441 93.4713 8.00301C91.913 7.54033 90.2872 7.95027 89.0608 9.66646C88.086 11.0298 87.4985 12.5743 87.2671 14.793C87.0981 16.4152 87.1533 18.06 87.4539 19.4511C87.0907 21.0209 86.4168 21.6638 85.6787 21.6638C84.6071 21.6638 83.8304 19.9152 83.9206 16.8904C83.98 14.9009 84.3782 13.5047 84.8133 11.4848C84.9989 10.6237 84.8481 10.173 84.47 9.74102C84.1231 9.34475 83.3841 9.14218 82.3221 9.39102C81.5655 9.56866 80.4836 9.75972 79.4938 9.90643C79.4938 9.90643 79.5537 9.6679 79.6026 9.2479C79.8601 7.04482 77.466 7.22342 76.7019 7.92701C76.2462 8.34725 75.9358 8.84277 75.8181 9.73359C75.6311 11.1475 76.7842 11.8144 76.7842 11.8144C76.4061 13.5462 75.4786 15.8082 74.5211 17.4439C74.0084 18.3201 73.6162 18.9695 73.1096 19.6597C73.0931 16.8899 73.1112 14.1201 73.1638 11.3508C73.1847 10.3391 73.2252 9.58304 73.223 9.4066C73.2173 9.01153 72.9864 8.86194 72.5063 8.67304C72.0815 8.50571 71.5795 8.39016 71.0585 8.34941C70.4012 8.29859 70.0052 8.64691 70.0157 9.05924C70.0177 9.13715 70.0177 9.61516 70.0177 9.61516C69.4771 8.76557 68.6076 8.17441 68.0291 8.00301C66.4709 7.54033 64.8451 7.95027 63.6187 9.66646C62.6442 11.0298 62.006 12.9433 61.825 14.7762C61.6567 16.4843 61.6877 17.9358 61.9173 19.1589C61.6697 20.3834 60.9572 21.664 60.152 21.664C59.1221 21.664 58.5362 20.7533 58.5362 16.591C58.5362 14.1628 58.6091 13.1068 58.6451 11.3505C58.6659 10.3391 58.7059 9.56218 58.7038 9.38599C58.6961 8.8454 57.7614 8.57307 57.3263 8.47215C56.8713 8.36667 56.4784 8.32831 56.1766 8.35061C55.7787 8.38009 55.4987 8.73657 55.4987 9.00242V9.61516C54.9581 8.76557 54.0886 8.17441 53.5101 8.00301C51.9519 7.54033 50.3352 7.95698 49.0996 9.66646C48.2942 10.781 47.6419 12.0165 47.3063 14.7518C47.2092 15.5422 47.1663 16.2827 47.172 16.9743C46.8508 18.9391 45.4316 21.2035 44.2711 21.2035C43.5919 21.2035 42.9449 19.886 42.9449 17.0786C42.9449 13.3388 43.1765 8.01403 43.2158 7.50102C43.2158 7.50102 44.6822 7.47609 44.9661 7.47273C45.6977 7.46458 46.3601 7.48208 47.3345 7.43198C47.8231 7.40729 48.2939 5.65321 47.7895 5.43626C47.5608 5.33797 45.9453 5.25215 45.3048 5.23849C44.7664 5.2265 43.2671 5.11527 43.2671 5.11527C43.2671 5.11527 43.4016 1.58098 43.433 1.20773C43.4594 0.896327 43.0566 0.73619 42.826 0.639101C42.2646 0.401772 41.7624 0.287902 41.1671 0.165163C40.3444 -0.00456332 39.9714 0.161567 39.8985 0.855574C39.7887 1.90917 39.7319 4.99516 39.7319 4.99516C39.1282 4.99516 37.0661 4.87722 36.4625 4.87722C35.9015 4.87722 35.296 7.28982 36.0717 7.31955C36.964 7.35407 38.5191 7.38427 39.5499 7.41496C39.5499 7.41496 39.5039 12.8275 39.5039 14.4989C39.5039 14.6763 39.5049 14.8477 39.5058 15.0138C38.9384 17.9708 36.94 19.5683 36.94 19.5683C37.3691 17.6119 36.4925 16.1427 34.9134 14.899C34.3316 14.4408 33.183 13.5733 31.8981 12.6225C31.8981 12.6225 32.6422 11.889 33.3024 10.4132C33.7699 9.36753 33.7903 8.17153 32.6422 7.90759C30.7455 7.47129 29.1818 8.86434 28.7153 10.3516C28.3538 11.5037 28.5465 12.3583 29.2546 13.2463C29.3062 13.3113 29.3625 13.3777 29.4201 13.4443C28.9921 14.2694 28.4039 15.3806 27.9057 16.2422C26.523 18.6346 25.4785 20.5265 24.6891 20.5265C24.0581 20.5265 24.0665 18.6054 24.0665 16.8067C24.0665 15.2562 24.1811 12.9248 24.2727 10.5115C24.3029 9.71321 23.9035 9.25845 23.2346 8.8466C22.8281 8.59633 21.9605 8.10441 21.458 8.10441C20.7058 8.10441 18.5358 8.20677 16.4856 14.1376C16.2272 14.8851 15.7195 16.2472 15.7195 16.2472L15.7633 9.11509C15.7633 8.94777 15.6742 8.78619 15.4702 8.67568C15.1247 8.48797 14.202 8.10441 13.3814 8.10441C12.9907 8.10441 12.7953 8.28612 12.7953 8.64859L12.7239 19.8069C12.7239 20.6548 12.7459 21.6439 12.8298 22.0764C12.9132 22.5093 13.0487 22.8617 13.216 23.0712C13.3836 23.2805 13.577 23.4404 13.8961 23.5061C14.1931 23.5672 15.8194 23.776 15.9041 23.1547C16.0052 22.4096 16.0093 21.6041 16.8632 18.5994C18.1927 13.9214 19.9259 11.6392 20.741 10.8284C20.8837 10.687 21.0462 10.6783 21.0383 10.9102C21.0038 11.9357 20.8813 14.4989 20.799 16.6756C20.5782 22.5021 21.6381 23.5821 23.1529 23.5821C24.3117 23.5821 25.9452 22.4307 27.6962 19.5161C28.6718 17.8918 29.643 16.2649 30.6096 14.6353C31.1401 15.1265 31.7358 15.6551 32.3308 16.2199C33.714 17.5326 34.1681 18.7801 33.8667 19.9634C33.6366 20.8679 32.7686 21.8002 31.224 20.8943C30.7738 20.6299 30.5815 20.4254 30.1289 20.1274C29.8858 19.9675 29.5145 19.9195 29.2918 20.0874C28.7136 20.5232 28.3828 21.0779 28.1939 21.7645C28.0102 22.4326 28.6793 22.7857 29.3731 23.0947C29.9702 23.3606 31.254 23.6015 32.0724 23.6288C35.2619 23.7355 37.8172 22.0888 39.5959 17.8411C39.9143 21.5097 41.2692 23.5854 43.6236 23.5854C45.1976 23.5854 46.7757 21.5509 47.4659 19.5494C47.6639 20.3652 47.9574 21.0748 48.3361 21.6748C50.1501 24.5491 53.6693 23.9306 55.437 21.4898C55.9836 20.7356 56.0668 20.4647 56.0668 20.4647C56.3247 22.7692 58.1807 23.5744 59.2432 23.5744C60.4334 23.5744 61.662 23.0118 62.5233 21.0729C62.6243 21.2833 62.7345 21.4845 62.8549 21.6748C64.6689 24.5491 68.1883 23.9306 69.956 21.4898C70.0395 21.3752 70.1119 21.2716 70.1749 21.1781L70.2267 22.692L68.5992 24.1848C65.8711 26.6851 63.7989 28.5813 63.6465 30.7899C63.4523 33.606 65.735 34.6526 67.4643 34.7898C69.2975 34.9353 70.8704 33.9217 71.8355 32.5033C72.6851 31.2545 73.2413 28.5672 73.2003 25.9132C73.1842 24.8502 73.1571 23.4989 73.1363 22.0502C74.094 20.9381 75.173 19.5324 76.1664 17.8874C77.249 16.0945 78.4093 13.6867 79.0033 11.8127C79.0033 11.8127 80.0114 11.8216 81.0872 11.7511C81.4313 11.7286 81.5303 11.7991 81.4665 12.051C81.3898 12.356 80.1073 17.3022 81.2778 20.5973C82.0788 22.8531 83.8846 23.5785 84.9552 23.5785C86.2088 23.5785 87.4076 22.632 88.0501 21.2268C88.1278 21.3833 88.2085 21.5348 88.297 21.6751C90.111 24.5494 93.618 23.9268 95.3982 21.4898C95.7999 20.9398 96.0279 20.4647 96.0279 20.4647C96.4098 22.85 98.2648 23.5866 99.3273 23.5866C100.434 23.5866 101.484 23.1328 102.336 21.1165C102.372 22.0044 102.428 22.7303 102.517 22.959C102.571 23.0993 102.885 23.2748 103.114 23.3596C104.126 23.735 105.159 23.5576 105.541 23.4804C105.805 23.4267 106.012 23.2143 106.04 22.6663C106.114 21.2268 106.069 18.8082 106.505 17.0105C107.238 13.994 107.921 12.8239 108.245 12.2447C108.427 11.9199 108.631 11.8664 108.638 12.21C108.654 12.9052 108.688 14.946 108.972 17.6884C109.181 19.705 109.459 20.8972 109.673 21.2747C110.284 22.3535 111.038 22.4045 111.652 22.4045C112.043 22.4045 112.86 22.2967 112.786 21.6101C112.751 21.2754 112.813 19.2071 113.535 16.2352C114.007 14.2944 114.793 12.541 115.077 11.8998C115.182 11.6634 115.23 11.8497 115.228 11.8861C115.169 13.2226 115.035 17.5942 115.579 19.9852C116.317 23.2242 118.452 23.5866 119.196 23.5866C120.785 23.5866 122.084 22.3784 122.521 19.1992C122.627 18.434 122.471 17.8433 122.003 17.8433Z" fill="black"/>
</g>
<defs>
<clipPath id="clip0_292_5">
<rect width="122.74" height="35" fill="white"/>
</clipPath>
</defs>
</svg>
