<svg width="235" height="68" viewBox="0 0 235 68" fill="none" xmlns="http://www.w3.org/2000/svg">
<path d="M12.4508 0.413883C7.65581 2.4224 2.38529 8.08948 0.720555 15.2083C-1.38802 24.2251 7.38501 28.0392 8.10515 26.7903C8.95198 25.3211 6.53313 24.8245 6.03514 20.1456C5.39164 14.1026 8.20108 7.35051 11.7371 4.38777C12.3934 3.83699 12.3627 4.60349 12.3627 6.02038C12.3627 8.55443 12.2227 31.3035 12.2227 36.0513C12.2227 42.4752 11.9574 44.5039 11.4805 46.5088C10.9981 48.5398 10.2215 49.9126 10.8095 50.4413C11.4668 51.0325 14.273 49.6257 15.8973 47.3588C17.8453 44.6398 18.5273 41.3736 18.6499 37.828C18.7977 33.553 18.7912 26.7692 18.7977 22.9C18.8032 19.3516 18.8573 8.96063 18.7352 2.71385C18.7054 1.18085 14.4561 -0.426517 12.4508 0.413883Z" fill="black"/>
<path d="M182.708 30.4789C182.553 33.8189 181.814 36.4291 180.896 38.2706C179.12 41.8355 175.434 42.9421 173.869 37.818C173.016 35.0247 172.976 30.3595 173.589 26.4614C174.213 22.4907 175.956 19.4917 178.842 19.762C181.689 20.0296 183.021 23.6974 182.708 30.4793V30.4789ZM134.721 51.2002C134.682 56.7493 133.809 61.6145 131.936 63.0282C129.28 65.0321 125.709 63.5285 126.449 59.4794C127.103 55.8961 130.197 52.2366 134.729 47.7652C134.729 47.7652 134.738 48.785 134.721 51.2002ZM133.996 30.4463C133.833 33.4884 133.045 36.5439 132.184 38.2706C130.408 41.8355 126.696 42.9499 125.157 37.818C124.105 34.3114 124.357 29.7739 124.877 26.9144C125.553 23.2044 127.19 19.7625 130.13 19.7625C132.989 19.7625 134.399 22.8987 133.996 30.4463ZM106.197 30.4004C106.023 33.6215 105.395 36.3144 104.386 38.2706C102.561 41.8112 98.9508 42.9339 97.3591 37.818C96.2111 34.1292 96.6017 29.0996 97.0791 26.3824C97.7878 22.3503 99.5622 19.4917 102.332 19.7625C105.177 20.0406 106.56 23.6974 106.197 30.4004ZM233.59 34.1631C232.894 34.1631 232.577 34.8801 232.314 36.0863C231.404 40.2832 230.446 41.2301 229.212 41.2301C227.832 41.2301 226.593 39.1528 226.274 34.9934C226.024 31.7227 226.064 25.7018 226.384 19.7125C226.45 18.4819 226.11 17.2643 222.81 16.0654C221.389 15.5495 219.325 14.7899 218.297 17.2711C215.393 24.2817 214.256 29.8473 213.989 32.1074C213.975 32.2244 213.831 32.2487 213.807 31.9752C213.636 30.1645 213.255 26.8736 213.208 19.9603C213.198 18.6114 212.913 17.4635 211.424 16.5235C210.458 15.913 207.524 14.8344 206.468 16.1182C205.553 17.1674 204.493 19.992 203.392 23.3407C202.497 26.0625 201.873 27.9031 201.873 27.9031C201.873 27.9031 201.885 20.5602 201.896 17.7746C201.901 16.724 201.18 16.3738 200.962 16.3105C199.985 16.0268 198.057 15.5527 197.239 15.5527C196.229 15.5527 195.982 16.1163 195.982 16.9388C195.982 17.0467 195.823 26.6064 195.823 33.2911C195.823 33.5816 195.823 33.8983 195.825 34.2352C195.266 37.3076 193.456 41.478 191.487 41.478C189.515 41.478 188.585 39.7348 188.585 31.7654C188.585 27.1164 188.724 25.0945 188.793 21.732C188.833 19.7951 188.91 18.308 188.905 17.9706C188.891 16.9356 187.102 16.4138 186.268 16.221C185.432 16.0268 184.705 15.9511 184.137 15.9837C183.333 16.0296 182.765 16.556 182.765 17.2812C182.765 17.6705 182.769 18.4094 182.769 18.4094C181.734 16.7828 180.069 15.6509 178.962 15.3227C175.979 14.4369 172.866 15.2218 170.517 18.5076C168.651 21.1179 167.526 24.0751 167.083 28.323C166.76 31.429 166.865 34.5781 167.441 37.2416C166.746 40.247 165.455 41.478 164.042 41.478C161.99 41.478 160.503 38.1301 160.676 32.3387C160.79 28.5296 161.552 25.8564 162.385 21.989C162.74 20.3404 162.452 19.4775 161.728 18.6504C161.064 17.8917 159.649 17.5038 157.615 17.9803C156.167 18.3204 154.095 18.6862 152.2 18.9671C152.2 18.9671 152.315 18.5104 152.409 17.7063C152.902 13.4882 148.318 13.8301 146.855 15.1773C145.982 15.9819 145.388 16.9306 145.163 18.6362C144.805 21.3432 147.012 22.6201 147.012 22.6201C146.289 25.9358 144.513 30.2668 142.68 33.3985C141.698 35.0761 140.947 36.3195 139.977 37.6409C139.945 32.3378 139.98 27.0346 140.081 21.7325C140.121 19.7956 140.198 18.3479 140.194 18.0101C140.183 17.2537 139.741 16.9673 138.822 16.6056C138.009 16.2852 137.047 16.064 136.05 15.986C134.792 15.8887 134.033 16.5556 134.053 17.345C134.057 17.4942 134.057 18.4094 134.057 18.4094C133.022 16.7828 131.357 15.6509 130.25 15.3227C127.266 14.4369 124.154 15.2218 121.805 18.5076C119.94 21.1179 118.718 24.7815 118.371 28.2909C118.049 31.5612 118.108 34.3403 118.548 36.6821C118.074 39.0265 116.71 41.4784 115.168 41.4784C113.196 41.4784 112.075 39.7348 112.075 31.7654C112.075 27.1164 112.214 25.0945 112.283 21.732C112.323 19.7956 112.4 18.308 112.395 17.9706C112.381 16.9356 110.591 16.4142 109.758 16.221C108.887 16.019 108.135 15.9456 107.557 15.9883C106.795 16.0447 106.259 16.7272 106.259 17.2363V18.4094C105.224 16.7828 103.559 15.6509 102.451 15.3227C99.4681 14.4369 96.3727 15.2346 94.0071 18.5076C92.4649 20.6415 91.216 23.0071 90.5734 28.2441C90.3876 29.7574 90.3054 31.1752 90.3164 32.4993C89.7014 36.2612 86.9842 40.5967 84.7622 40.5967C83.4619 40.5967 82.2231 38.0742 82.2231 32.699C82.2231 25.5388 82.6665 15.3439 82.7418 14.3616C82.7418 14.3616 85.5494 14.3139 86.0928 14.3075C87.4937 14.2919 88.7618 14.3254 90.6276 14.2294C91.563 14.1822 92.4645 10.8238 91.4987 10.4084C91.0609 10.2202 87.9678 10.0559 86.7414 10.0297C85.7105 10.0068 82.84 9.79382 82.84 9.79382C82.84 9.79382 83.0975 3.02702 83.1576 2.31238C83.2081 1.71616 82.437 1.40955 81.9955 1.22367C80.9205 0.76927 79.959 0.551253 78.8193 0.316253C77.2441 -0.00870809 76.5299 0.309368 76.3904 1.63813C76.1801 3.65536 76.0714 9.56387 76.0714 9.56387C74.9156 9.56387 70.9675 9.33805 69.8117 9.33805C68.7377 9.33805 67.5783 13.9573 69.0636 14.0142C70.7719 14.0803 73.7494 14.1381 75.723 14.1969C75.723 14.1969 75.6349 24.5598 75.6349 27.7599C75.6349 28.0995 75.6367 28.4277 75.6385 28.7458C74.5521 34.4073 70.726 37.466 70.726 37.466C71.5476 33.7202 69.8691 30.9071 66.8458 28.5259C65.7318 27.6488 63.5328 25.9877 61.0727 24.1674C61.0727 24.1674 62.4974 22.7629 63.7614 19.9374C64.6564 17.9353 64.6954 15.6454 62.4974 15.1401C58.8659 14.3047 55.8719 16.9719 54.9787 19.8194C54.2866 22.0253 54.6556 23.6616 56.0115 25.3617C56.1101 25.486 56.218 25.6132 56.3282 25.7408C55.5089 27.3206 54.3825 29.448 53.4287 31.0976C50.7813 35.6783 48.7815 39.3006 47.2701 39.3006C46.062 39.3006 46.0781 35.6223 46.0781 32.1785C46.0781 29.2098 46.2975 24.7462 46.4728 20.1256C46.5307 18.5971 45.766 17.7265 44.4854 16.9379C43.707 16.4587 42.0459 15.5169 41.0839 15.5169C39.6436 15.5169 35.4889 15.7129 31.5636 27.0682C31.0689 28.4993 30.0967 31.1072 30.0967 31.1072L30.1807 17.452C30.1807 17.1316 30.01 16.8223 29.6194 16.6107C28.958 16.2513 27.1914 15.5169 25.6203 15.5169C24.8721 15.5169 24.498 15.8648 24.498 16.5588L24.3613 37.9227C24.3613 39.5461 24.4035 41.4399 24.5641 42.2679C24.7239 43.0968 24.9832 43.7715 25.3036 44.1727C25.6244 44.5734 25.9948 44.8795 26.6057 45.0053C27.1744 45.1223 30.2881 45.5221 30.4502 44.3324C30.6438 42.9059 30.6516 41.3637 32.2866 35.6108C34.8321 26.6542 38.1505 22.2846 39.7111 20.7323C39.9842 20.4615 40.2954 20.445 40.2802 20.8889C40.2141 22.8524 39.9796 27.7599 39.8222 31.9274C39.3994 43.083 41.4286 45.1508 44.3289 45.1508C46.5477 45.1508 49.6752 42.9463 53.0276 37.3659C54.8956 34.2561 56.7549 31.1411 58.6056 28.021C59.6214 28.9615 60.7619 29.9735 61.9011 31.0549C64.5495 33.5683 65.4188 35.9569 64.8419 38.2224C64.4012 39.9542 62.7392 41.7391 59.782 40.0046C58.92 39.4984 58.5519 39.1069 57.6854 38.5364C57.22 38.2302 56.509 38.1384 56.0826 38.4597C54.9755 39.2941 54.3421 40.3562 53.9804 41.6708C53.6289 42.9499 54.9099 43.626 56.2382 44.2177C57.3815 44.7267 59.8394 45.188 61.4064 45.2403C67.5131 45.4445 72.4055 42.2918 75.8111 34.159C76.4207 41.1829 79.0148 45.1572 83.5225 45.1572C86.5362 45.1572 89.5577 41.2618 90.8791 37.4297C91.2582 38.9917 91.82 40.3503 92.5452 41.4991C96.0184 47.0023 102.756 45.8181 106.141 41.1448C107.187 39.7008 107.347 39.1821 107.347 39.1821C107.84 43.5944 111.394 45.1361 113.428 45.1361C115.707 45.1361 118.059 44.0588 119.708 40.3466C119.902 40.7496 120.113 41.1347 120.343 41.4991C123.816 47.0023 130.555 45.8181 133.939 41.1448C134.099 40.9254 134.238 40.7271 134.358 40.5481L134.457 43.4466L131.341 46.3047C126.118 51.0919 122.151 54.7224 121.859 58.9511C121.487 64.3428 125.857 66.3467 129.169 66.6092C132.678 66.8878 135.69 64.9472 137.538 62.2314C139.164 59.8406 140.229 54.6954 140.151 49.6139C140.12 47.5788 140.068 44.9915 140.028 42.2179C141.862 40.0886 143.928 37.3971 145.83 34.2476C147.902 30.8149 150.124 26.2048 151.261 22.6169C151.261 22.6169 153.191 22.6339 155.251 22.499C155.91 22.4558 156.099 22.5908 155.977 23.0732C155.83 23.657 153.375 33.1272 155.616 39.436C157.15 43.755 160.607 45.1439 162.657 45.1439C165.057 45.1439 167.352 43.3318 168.582 40.6413C168.731 40.941 168.886 41.231 169.055 41.4996C172.528 47.0028 179.243 45.8108 182.651 41.1448C183.42 40.0918 183.857 39.1821 183.857 39.1821C184.588 43.749 188.14 45.1595 190.174 45.1595C192.293 45.1595 194.304 44.2906 195.935 40.4301C196.004 42.1302 196.111 43.52 196.28 43.9579C196.384 44.2264 196.986 44.5624 197.424 44.7248C199.362 45.4436 201.339 45.104 202.07 44.9562C202.577 44.8534 202.972 44.4467 203.026 43.3975C203.169 40.6413 203.082 36.0106 203.917 32.5686C205.319 26.7932 206.628 24.5529 207.248 23.444C207.596 22.8221 207.987 22.7197 208.001 23.3775C208.031 24.7085 208.097 28.6159 208.64 33.8666C209.04 37.7276 209.572 40.0102 209.982 40.7331C211.151 42.7985 212.595 42.8962 213.771 42.8962C214.519 42.8962 216.083 42.6897 215.943 41.3752C215.875 40.7344 215.994 36.7743 217.377 31.0843C218.28 27.3683 219.785 24.0113 220.328 22.7835C220.529 22.331 220.622 22.6876 220.618 22.7574C220.504 25.3162 220.248 33.6863 221.29 38.2642C222.704 44.4655 226.791 45.1595 228.216 45.1595C231.257 45.1595 233.744 42.8462 234.582 36.7592C234.784 35.2941 234.485 34.1631 233.59 34.1631Z" fill="black"/>
</svg>
