<svg  width="22" height="20" viewBox="0 0 22 20" fill="none" xmlns="http://www.w3.org/2000/svg">
<path  d="M21.4677 4.80804C21.1264 4.06032 20.6342 3.38274 20.0187 2.81324C19.4028 2.24203 18.6766 1.78811 17.8796 1.47614C17.0532 1.15137 16.1668 0.985129 15.2719 0.987077C14.0164 0.987077 12.7915 1.31232 11.727 1.92666C11.4724 2.07362 11.2305 2.23503 11.0013 2.4109C10.7721 2.23503 10.5301 2.07362 10.2755 1.92666C9.21101 1.31232 7.9861 0.987077 6.73063 0.987077C5.82659 0.987077 4.95057 1.1509 4.12293 1.47614C3.3233 1.78934 2.60261 2.23985 1.98379 2.81324C1.36751 3.3821 0.875206 4.05984 0.534783 4.80804C0.180808 5.58621 0 6.41255 0 7.263C0 8.06525 0.173168 8.90124 0.516957 9.75168C0.804722 10.4624 1.21727 11.1996 1.74441 11.944C2.57969 13.1221 3.7282 14.3508 5.15429 15.5964C7.51753 17.661 9.85784 19.0873 9.95716 19.1451L10.5607 19.5113C10.8281 19.6727 11.1719 19.6727 11.4393 19.5113L12.0428 19.1451C12.1421 19.0849 14.4799 17.661 16.8457 15.5964C18.2718 14.3508 19.4203 13.1221 20.2556 11.944C20.7827 11.1996 21.1978 10.4624 21.483 9.75168C21.8268 8.90124 22 8.06525 22 7.263C22.0025 6.41255 21.8217 5.58621 21.4677 4.80804ZM11.0013 17.6056C11.0013 17.6056 1.93541 12.1103 1.93541 7.263C1.93541 4.80804 4.08218 2.81806 6.73063 2.81806C8.59219 2.81806 10.2067 3.801 11.0013 5.23687C11.7958 3.801 13.4103 2.81806 15.2719 2.81806C17.9203 2.81806 20.0671 4.80804 20.0671 7.263C20.0671 12.1103 11.0013 17.6056 11.0013 17.6056Z" fill="black"/>
</svg>
