<svg width="22" height="22" viewBox="0 0 22 22" fill="none" xmlns="http://www.w3.org/2000/svg">
<path d="M6.3404 18.9482C6.9894 18.6622 7.7154 18.6083 8.3952 18.7953C9.2422 19.0263 10.1167 19.1429 11 19.1407C16.0435 19.1407 19.8 15.5249 19.8 10.6704C19.8 5.81591 16.0435 2.20008 11 2.20008C5.9565 2.20008 2.2 5.81591 2.2 10.6704C2.2 13.1675 3.1856 15.3698 4.9126 16.9142C5.22638 17.1922 5.48013 17.5312 5.6583 17.9107C5.83648 18.2901 5.93533 18.7019 5.9488 19.1209L6.3404 18.9482ZM11 0C17.1974 0 22 4.53986 22 10.6704C22 16.8009 17.1974 21.3408 11 21.3408C9.92435 21.3435 8.85323 21.2015 7.8155 20.9184C7.62058 20.8648 7.41316 20.8799 7.2281 20.9613L5.0457 21.9249C4.91384 21.9832 4.76969 22.0082 4.62591 21.9977C4.48213 21.9872 4.34314 21.9415 4.22114 21.8647C4.09914 21.7879 3.99788 21.6823 3.92626 21.5572C3.85464 21.4321 3.81486 21.2913 3.8104 21.1472L3.7499 19.1891C3.74594 19.07 3.71775 18.953 3.66707 18.8452C3.61638 18.7374 3.54426 18.6411 3.4551 18.5621C1.3145 16.6491 0 13.8792 0 10.6704C0 4.53986 4.8037 0 11 0ZM4.3945 13.7912L7.6252 8.66501C7.74676 8.47202 7.907 8.30632 8.09582 8.17838C8.28464 8.05044 8.49794 7.96303 8.72224 7.92168C8.94654 7.88034 9.17698 7.88594 9.399 7.93815C9.62103 7.99036 9.82982 8.08803 10.0122 8.225L12.5818 10.1501C12.6963 10.2365 12.8359 10.2833 12.9795 10.2833C13.123 10.2833 13.2626 10.2365 13.3771 10.1501L16.8476 7.51437C17.3107 7.16346 17.9157 7.71788 17.6055 8.2107L14.3748 13.3369C14.2532 13.5299 14.093 13.6956 13.9042 13.8235C13.7154 13.9515 13.5021 14.0389 13.2778 14.0802C13.0535 14.1216 12.823 14.116 12.601 14.0637C12.379 14.0115 12.1702 13.9139 11.9878 13.7769L9.4182 11.8518C9.30366 11.7654 9.16406 11.7186 9.02055 11.7186C8.87704 11.7186 8.73744 11.7654 8.6229 11.8518L5.1524 14.4864C4.6893 14.8373 4.0843 14.2829 4.3945 13.7901V13.7912Z" fill="black"/>
</svg>
