<svg width="70" height="60" viewBox="0 0 70 60" fill="none" xmlns="http://www.w3.org/2000/svg">
<path d="M68.9325 1.33109C68.791 1.04976 68.5737 0.81354 68.3051 0.64905C68.0366 0.484561 67.7274 0.398334 67.4125 0.400084H2.50846C2.15859 0.39645 1.81642 0.502667 1.5301 0.703772C1.24378 0.904877 1.02775 1.19073 0.912464 1.52108C0.787514 1.84831 0.766107 2.20601 0.851059 2.54582C0.936012 2.88564 1.12323 3.19116 1.38746 3.42108L24.1875 22.9341V57.4951C24.1896 57.8538 24.3045 58.2028 24.5159 58.4926C24.7273 58.7825 25.0245 58.9985 25.3655 59.1101C25.5417 59.1372 25.7212 59.1372 25.8974 59.1101C26.1629 59.1101 26.4247 59.0483 26.6622 58.9296C26.8996 58.8108 27.1062 58.6385 27.2655 58.4261L68.7235 3.06009C68.9082 2.81616 69.0248 2.52758 69.0616 2.22382C69.0983 1.92006 69.0538 1.612 68.9325 1.33109V1.33109ZM7.1255 3.83909H59.9455L26.1825 20.1221L7.1255 3.83909ZM27.6455 23.2001L61.8455 6.68909L27.6455 52.2891V23.2001Z" fill="black"/>
</svg>
