<svg width="19" height="23" viewBox="0 0 19 23" fill="none" xmlns="http://www.w3.org/2000/svg">
<path d="M16.8889 5.27418H14.7778C14.7778 2.32064 12.4556 0 9.5 0C6.54444 0 4.22222 2.32064 4.22222 5.27418H2.11111C0.95 5.27418 0 6.22353 0 7.38385V20.0419C0 21.2022 0.95 22.1515 2.11111 22.1515H16.8889C18.05 22.1515 19 21.2022 19 20.0419V7.38385C19 6.22353 18.05 5.27418 16.8889 5.27418ZM9.5 2.10967C11.2944 2.10967 12.6667 3.48096 12.6667 5.27418H6.33333C6.33333 3.48096 7.70556 2.10967 9.5 2.10967ZM16.8889 20.0419H2.11111V7.38385H16.8889V20.0419ZM9.5 11.6032C7.70556 11.6032 6.33333 10.2319 6.33333 8.43869H4.22222C4.22222 11.3922 6.54444 13.7129 9.5 13.7129C12.4556 13.7129 14.7778 11.3922 14.7778 8.43869H12.6667C12.6667 10.2319 11.2944 11.6032 9.5 11.6032Z" fill="black"/>
</svg>
