<svg width="22" height="23" viewBox="0 0 22 23" fill="none" xmlns="http://www.w3.org/2000/svg">
<path d="M11 0C8.82441 0 6.69767 0.649583 4.88873 1.8666C3.07979 3.08363 1.66989 4.81343 0.83733 6.83726C0.00476611 8.86109 -0.213071 11.0881 0.211367 13.2365C0.635804 15.385 1.68345 17.3586 3.22183 18.9075C4.76021 20.4565 6.72022 21.5114 8.85401 21.9387C10.9878 22.3661 13.1995 22.1468 15.2095 21.3085C17.2195 20.4702 18.9375 19.0505 20.1462 17.2291C21.3549 15.4077 22 13.2664 22 11.0758C21.9967 8.13932 20.8367 5.3241 18.7745 3.24772C16.7123 1.17133 13.9164 0.0033502 11 0ZM6.28572 19.2853V18.1959C6.28634 17.5666 6.53488 16.9633 6.9768 16.5184C7.41871 16.0734 8.0179 15.8232 8.64286 15.8225H13.3571C13.9821 15.8232 14.5813 16.0734 15.0232 16.5184C15.4651 16.9633 15.7137 17.5666 15.7143 18.1959V19.2853C14.2836 20.1264 12.6567 20.5697 11 20.5697C9.34331 20.5697 7.71637 20.1264 6.28572 19.2853ZM17.2794 18.1374C17.2638 17.0997 16.8439 16.1097 16.1102 15.3808C15.3766 14.6518 14.3879 14.2422 13.3571 14.2403H8.64286C7.61215 14.2422 6.62345 14.6518 5.88979 15.3808C5.15613 16.1097 4.73623 17.0997 4.72058 18.1374C3.29573 16.8563 2.29094 15.1698 1.83923 13.3009C1.38753 11.4321 1.51023 9.46927 2.19108 7.67223C2.87193 5.8752 4.07882 4.32878 5.65194 3.23774C7.22506 2.14669 9.0902 1.5625 11.0004 1.5625C12.9106 1.5625 14.7757 2.14669 16.3489 3.23774C17.922 4.32878 19.1289 5.8752 19.8097 7.67223C20.4906 9.46927 20.6133 11.4321 20.1616 13.3009C19.7099 15.1698 18.7043 16.8563 17.2794 18.1374Z" fill="black"/>
<circle cx="10.9999" cy="8.8908" r="3.96428" stroke="black" stroke-width="1.5"/>
</svg>
